<svg id="Layer_1" data-name="Layer 1" xmlns="http://www.w3.org/2000/svg" viewBox="0 0 250.28 159.27"><defs><style>.cls-1{fill:#fff;fill-rule:evenodd;}</style></defs><title>google-plus</title><path class="cls-1" d="M79.16,69V96.33h45.16c-1.82,11.71-13.65,34.35-45.16,34.35-27.19,0-49.37-22.52-49.37-50.28S52,30.12,79.16,30.12c15.47,0,25.82,6.59,31.74,12.28l21.61-20.82C118.64,8.61,100.66.76,79.16.76a79.64,79.64,0,0,0,0,159.27c46,0,76.45-32.31,76.45-77.81A73.55,73.55,0,0,0,154.36,69Z" transform="translate(0.47 -0.76)"/><polygon class="cls-1" points="250.28 68.26 227.53 68.26 227.53 45.51 204.77 45.51 204.77 68.26 182.02 68.26 182.02 91.01 204.77 91.01 204.77 113.76 227.53 113.76 227.53 91.01 250.28 91.01 250.28 68.26"/></svg>