<svg id="Layer_1" data-name="Layer 1" xmlns="http://www.w3.org/2000/svg" viewBox="0 0 58.87 58.86"><defs><style>.cls-1{fill:#fdfcfc;}.cls-2,.cls-3{fill:#fff;}.cls-3{font-size:4px;font-family:CastleT-Ligh, CastleT Ligh;letter-spacing:0.1em;}</style></defs><title>pre-logo</title><path class="cls-1" d="M58.4,33.15c-.88-.1-1.41-.95-2.66-1,1.25.11,1.85-.66,2.76-.63s1.08.52,1.06.92S59.17,33.24,58.4,33.15Z" transform="translate(-0.77 -0.74)"/><path class="cls-1" d="M57.92,36.13c-.87-.19-1.28-1.09-2.53-1.31,1.24.23,1.91-.47,2.81-.34.75.11,1,.64,1,1S58.67,36.3,57.92,36.13Z" transform="translate(-0.77 -0.74)"/><path class="cls-1" d="M57.12,39c-.85-.29-1.13-1.22-2.36-1.57,1.2.37,1.94-.26,2.83,0,.73.2.95.74.85,1.13S57.83,39.28,57.12,39Z" transform="translate(-0.77 -0.74)"/><path class="cls-1" d="M56,41.85c-.83-.38-1-1.33-2.15-1.81,1.15.49,1.94,0,2.8.27A.88.88,0,1,1,56,41.85Z" transform="translate(-0.77 -0.74)"/><path class="cls-1" d="M54.62,44.53c-.78-.48-.85-1.44-1.95-2,1.11.63,1.94.16,2.76.57s.8.94.59,1.28A1,1,0,0,1,54.62,44.53Z" transform="translate(-0.77 -0.74)"/><path class="cls-1" d="M53,47c-.73-.55-.7-1.53-1.73-2.24,1,.74,2,.39,2.7.87s.69,1,.44,1.33A1,1,0,0,1,53,47Z" transform="translate(-0.77 -0.74)"/><path class="cls-1" d="M51,49.36c-.66-.63-.54-1.6-1.49-2.41.94.83,1.91.6,2.61,1.16s.55,1.06.28,1.35A1,1,0,0,1,51,49.36Z" transform="translate(-0.77 -0.74)"/><path class="cls-1" d="M48.86,51.46c-.59-.69-.37-1.64-1.23-2.56.85.93,1.83.79,2.47,1.44a.92.92,0,0,1,.14,1.37A1,1,0,0,1,48.86,51.46Z" transform="translate(-0.77 -0.74)"/><path class="cls-1" d="M46.5,53.33c-.52-.75-.2-1.68-1-2.68.75,1,1.73,1,2.31,1.68a.87.87,0,1,1-1.34,1Z" transform="translate(-0.77 -0.74)"/><path class="cls-1" d="M43.94,54.94c-.43-.8,0-1.7-.67-2.77.63,1.08,1.61,1.14,2.11,1.9a1,1,0,0,1-.15,1.39C44.89,55.67,44.31,55.61,43.94,54.94Z" transform="translate(-0.77 -0.74)"/><path class="cls-1" d="M41.24,56.28c-.35-.85.15-1.71-.38-2.84.51,1.14,1.48,1.3,1.89,2.11a1,1,0,0,1-.3,1.37C42.1,57.09,41.53,57,41.24,56.28Z" transform="translate(-0.77 -0.74)"/><path class="cls-1" d="M38.39,57.29c-.25-.85.34-1.66-.07-2.85.39,1.2,1.33,1.45,1.65,2.3a1,1,0,0,1-.43,1.34C39.17,58.22,38.61,58,38.39,57.29Z" transform="translate(-0.77 -0.74)"/><path class="cls-1" d="M35.46,58c-.16-.89.52-1.58.24-2.83.25,1.23,1.16,1.57,1.39,2.46a1,1,0,0,1-.57,1.29C36.14,59,35.59,58.74,35.46,58Z" transform="translate(-0.77 -0.74)"/><path class="cls-1" d="M32.47,58.39c-.07-.91.69-1.5.54-2.77.12,1.25,1,1.68,1.12,2.58a1,1,0,0,1-.71,1.23C33,59.49,32.52,59.14,32.47,58.39Z" transform="translate(-0.77 -0.74)"/><path class="cls-1" d="M29.45,58.46c0-.91.84-1.42.83-2.69,0,1.26.81,1.78.85,2.69a1,1,0,0,1-.84,1.15C29.9,59.6,29.43,59.22,29.45,58.46Z" transform="translate(-0.77 -0.74)"/><path class="cls-1" d="M26.44,58.22c.13-.9,1-1.33,1.11-2.58-.14,1.25.62,1.85.56,2.76-.05.75-.55,1.08-.95,1.05A1,1,0,0,1,26.44,58.22Z" transform="translate(-0.77 -0.74)"/><path class="cls-1" d="M23.48,57.67c.22-.89,1.13-1.23,1.38-2.46-.28,1.25.41,1.91.26,2.81-.13.74-.67,1-1.06.94A1,1,0,0,1,23.48,57.67Z" transform="translate(-0.77 -0.74)"/><path class="cls-1" d="M20.59,56.8c.32-.86,1.26-1.11,1.64-2.31a3.14,3.14,0,0,0-.09,1.56,2.77,2.77,0,0,1,0,1.28c-.21.73-.77,1-1.14.81A1,1,0,0,1,20.59,56.8Z" transform="translate(-0.77 -0.74)"/><path class="cls-1" d="M17.81,55.62c.41-.81,1.37-1,1.88-2.12-.53,1.14,0,2-.36,2.83s-.86.84-1.22.67A1,1,0,0,1,17.81,55.62Z" transform="translate(-0.77 -0.74)"/><path class="cls-1" d="M15.17,54.16c.5-.77,1.47-.83,2.1-1.91-.64,1.07-.23,2-.66,2.78s-.94.73-1.28.52A1,1,0,0,1,15.17,54.16Z" transform="translate(-0.77 -0.74)"/><path class="cls-1" d="M12.7,52.43c.57-.71,1.56-.67,2.3-1.69-.76,1-.44,1.94-.95,2.69a.93.93,0,0,1-1.33.39A.94.94,0,0,1,12.7,52.43Z" transform="translate(-0.77 -0.74)"/><path class="cls-1" d="M10.43,50.45c.64-.65,1.62-.51,2.46-1.44-.85.91-.63,1.87-1.22,2.57a1,1,0,0,1-1.37.25A.94.94,0,0,1,10.43,50.45Z" transform="translate(-0.77 -0.74)"/><path class="cls-1" d="M8.37,48.24c.71-.58,1.68-.34,2.61-1.18-1,.82-.82,1.79-1.48,2.42a.94.94,0,0,1-1.39.11A.92.92,0,0,1,8.37,48.24Z" transform="translate(-0.77 -0.74)"/><path class="cls-1" d="M6.58,45.82c.74-.49,1.69-.16,2.71-.9-1,.72-1,1.7-1.73,2.25a1,1,0,0,1-1.4,0C5.92,46.83,5.93,46.24,6.58,45.82Z" transform="translate(-0.77 -0.74)"/><path class="cls-1" d="M5.05,43.21c.8-.4,1.66,0,2.77-.59-1.1.61-1.16,1.57-1.94,2.05a1,1,0,0,1-1.4-.18C4.26,44.17,4.38,43.56,5.05,43.21Z" transform="translate(-0.77 -0.74)"/><path class="cls-1" d="M3.81,40.46c.85-.32,1.64.23,2.8-.28-1.16.48-1.32,1.43-2.14,1.82a1,1,0,0,1-1.38-.32A1,1,0,0,1,3.81,40.46Z" transform="translate(-0.77 -0.74)"/><path class="cls-1" d="M2.87,37.6c.88-.23,1.62.39,2.81,0C4.46,38,4.21,38.9,3.35,39.2S2.12,39.12,2,38.73A1,1,0,0,1,2.87,37.6Z" transform="translate(-0.77 -0.74)"/><path class="cls-1" d="M2.23,34.65c.91-.14,1.58.56,2.81.32a3.06,3.06,0,0,0-1.4.67,2.81,2.81,0,0,1-1.11.66c-.73.16-1.21-.22-1.26-.62S1.48,34.76,2.23,34.65Z" transform="translate(-0.77 -0.74)"/><path class="cls-1" d="M1.92,31.65c.91,0,1.51.73,2.76.61-1.26.1-1.76,1-2.65,1.06S.86,33,.86,32.58,1.16,31.68,1.92,31.65Z" transform="translate(-0.77 -0.74)"/><path class="cls-1" d="M1.92,28.63c.91.06,1.43.89,2.68.9-1.25,0-1.86.76-2.75.78S.74,29.85.77,29.45,1.16,28.59,1.92,28.63Z" transform="translate(-0.77 -0.74)"/><path class="cls-1" d="M2.23,25.64c.9.15,1.33,1,2.58,1.17-1.24-.17-1.92.56-2.82.48s-1-.57-1-1A1,1,0,0,1,2.23,25.64Z" transform="translate(-0.77 -0.74)"/><path class="cls-1" d="M2.87,22.69c.87.24,1.21,1.16,2.44,1.45-1.22-.31-2,.35-2.86.17s-1-.68-.87-1.07A1,1,0,0,1,2.87,22.69Z" transform="translate(-0.77 -0.74)"/><path class="cls-1" d="M3.81,19.82c.84.34,1.09,1.29,2.28,1.7-1.18-.43-2,.15-2.86-.12s-.89-.79-.75-1.17A1,1,0,0,1,3.81,19.82Z" transform="translate(-0.77 -0.74)"/><path class="cls-1" d="M5.05,17.07c.81.43,1,1.4,2.09,1.94-1.13-.55-2-.06-2.82-.43a.94.94,0,0,1-.63-1.24A.94.94,0,0,1,5.05,17.07Z" transform="translate(-0.77 -0.74)"/><path class="cls-1" d="M6.58,14.47c.75.51.8,1.5,1.87,2.15C7.39,16,6.5,16.35,5.7,15.9a1,1,0,0,1-.5-1.3A.93.93,0,0,1,6.58,14.47Z" transform="translate(-0.77 -0.74)"/><path class="cls-1" d="M8.37,12c.69.58.65,1.58,1.64,2.35-1-.78-1.91-.48-2.65-1A1,1,0,0,1,7,12,.92.92,0,0,1,8.37,12Z" transform="translate(-0.77 -0.74)"/><path class="cls-1" d="M10.43,9.83c.62.65.45,1.62,1.37,2.49-.9-.88-1.85-.66-2.52-1.27A1,1,0,0,1,9,9.66C9.3,9.36,9.9,9.29,10.43,9.83Z" transform="translate(-0.77 -0.74)"/><path class="cls-1" d="M12.7,7.85c.56.73.26,1.63,1.09,2.61-.8-1-1.76-.85-2.37-1.53a1,1,0,0,1-.09-1.41A1,1,0,0,1,12.7,7.85Z" transform="translate(-0.77 -0.74)"/><path class="cls-1" d="M15.17,6.12c.48.78.1,1.67.8,2.7-.7-1.07-1.65-1-2.19-1.77a1,1,0,0,1,.06-1.41A1,1,0,0,1,15.17,6.12Z" transform="translate(-0.77 -0.74)"/><path class="cls-1" d="M17.81,4.66c.39.82-.08,1.67.51,2.78a3.12,3.12,0,0,0-1.05-1.15,2.83,2.83,0,0,1-.95-.87C16,4.77,16.17,4.2,16.54,4A1,1,0,0,1,17.81,4.66Z" transform="translate(-0.77 -0.74)"/><path class="cls-1" d="M20.59,3.49c.3.86-.26,1.66.22,2.82C20.36,5.14,19.38,4.89,19,4.08s0-1.2.38-1.34A1,1,0,0,1,20.59,3.49Z" transform="translate(-0.77 -0.74)"/><path class="cls-1" d="M23.48,2.62c.21.88-.43,1.62-.09,2.83C23.07,4.24,22.13,3.9,21.86,3a.91.91,0,0,1,.51-1.27C22.75,1.66,23.3,1.88,23.48,2.62Z" transform="translate(-0.77 -0.74)"/><path class="cls-1" d="M26.44,2.06c.12.9-.6,1.58-.39,2.81C25.86,3.63,25,3.21,24.79,2.31c-.15-.74.25-1.16.65-1.22S26.35,1.31,26.44,2.06Z" transform="translate(-0.77 -0.74)"/><path class="cls-1" d="M29.45,1.82c0,.91-.77,1.51-.68,2.76-.06-1.25-.91-1.77-1-2.68-.07-.75.37-1.13.77-1.15S29.43,1.06,29.45,1.82Z" transform="translate(-0.77 -0.74)"/><path class="cls-1" d="M32.47,1.89c-.08.91-.92,1.43-1,2.68.08-1.25-.71-1.85-.7-2.76,0-.76.49-1.09.89-1.06S32.53,1.14,32.47,1.89Z" transform="translate(-0.77 -0.74)"/><path class="cls-1" d="M35.46,2.29c-.18.89-1.07,1.32-1.25,2.56.2-1.24-.52-1.91-.41-2.82.09-.75.6-1,1-1S35.6,1.54,35.46,2.29Z" transform="translate(-0.77 -0.74)"/><path class="cls-1" d="M38.39,3c-.27.87-1.2,1.21-1.52,2.42.34-1.2-.31-1.95-.1-2.84.17-.74.71-1,1.1-.86A.93.93,0,0,1,38.39,3Z" transform="translate(-0.77 -0.74)"/><path class="cls-1" d="M41.24,4c-.37.83-1.33,1.07-1.78,2.25.47-1.17-.1-2,.2-2.83a1,1,0,0,1,1.19-.75A.94.94,0,0,1,41.24,4Z" transform="translate(-0.77 -0.74)"/><path class="cls-1" d="M43.94,5.34c-.44.77-1.42.91-2,2,.59-1.11.11-2,.5-2.78A1,1,0,0,1,43.71,4C44.07,4.13,44.32,4.67,43.94,5.34Z" transform="translate(-0.77 -0.74)"/><path class="cls-1" d="M46.5,7c-.53.73-1.5.72-2.19,1.79.7-1,.31-1.93.78-2.71a1,1,0,0,1,1.33-.48C46.76,5.73,46.93,6.34,46.5,7Z" transform="translate(-0.77 -0.74)"/><path class="cls-1" d="M48.86,8.82c-.6.68-1.56.56-2.35,1.54.8-1,.51-1.88,1.06-2.61A1,1,0,0,1,49,7.4,1,1,0,0,1,48.86,8.82Z" transform="translate(-0.77 -0.74)"/><path class="cls-1" d="M51,10.92c-.67.62-1.62.41-2.51,1.29.92-.88.73-1.83,1.35-2.49s1.13-.5,1.39-.19A1,1,0,0,1,51,10.92Z" transform="translate(-0.77 -0.74)"/><path class="cls-1" d="M53,13.25c-.74.53-1.67.23-2.64,1,1-.77.94-1.76,1.61-2.34s1.16-.36,1.39,0A1,1,0,0,1,53,13.25Z" transform="translate(-0.77 -0.74)"/><path class="cls-1" d="M54.62,15.76c-.79.45-1.69.06-2.74.73,1.06-.66,1.11-1.65,1.87-2.17a.92.92,0,0,1,1.37.13A1,1,0,0,1,54.62,15.76Z" transform="translate(-0.77 -0.74)"/><path class="cls-1" d="M56,18.43c-.83.37-1.68-.12-2.81.45,1.14-.55,1.28-1.53,2.09-2a.91.91,0,0,1,1.35.27C56.82,17.54,56.71,18.12,56,18.43Z" transform="translate(-0.77 -0.74)"/><path class="cls-1" d="M57.12,21.24c-.87.28-1.67-.3-2.85.14C55.45,21,55.7,20,56.54,19.66s1.19,0,1.33.41S57.84,21,57.12,21.24Z" transform="translate(-0.77 -0.74)"/><path class="cls-1" d="M57.92,24.15c-.89.18-1.64-.47-2.86-.16,1.23-.29,1.57-1.21,2.44-1.47a1,1,0,0,1,1.29.55C58.88,23.45,58.66,24,57.92,24.15Z" transform="translate(-0.77 -0.74)"/><path class="cls-1" d="M58.4,27.13c-.91.09-1.58-.64-2.82-.46,1.24-.16,1.67-1,2.57-1.2s1.16.28,1.22.68S59.16,27.05,58.4,27.13Z" transform="translate(-0.77 -0.74)"/><path class="cls-1" d="M58.57,30.14c-.92,0-1.52-.8-2.77-.76,1.26,0,1.77-.85,2.68-.91s1.13.4,1.15.8S59.32,30.15,58.57,30.14Z" transform="translate(-0.77 -0.74)"/><path class="cls-2" d="M43,22.91A4.07,4.07,0,0,0,39.63,25V40.75a3.62,3.62,0,0,0,3.07,2.12c2.12,0,3.45-1.65,4.2-3.78a21.45,21.45,0,0,0,.9-6.43,17.14,17.14,0,0,0-1.27-6.86C45.72,24.05,44.54,22.91,43,22.91Z" transform="translate(-0.77 -0.74)"/><path class="cls-2" d="M9.24,24.22a12.38,12.38,0,0,1,7.54-2.95,6.47,6.47,0,0,1,4.44,1.59s.48.45.43.78l0,.13-.16.11h-.16a.31.31,0,0,1-.28-.12,2.89,2.89,0,0,0-.35-.29,6.78,6.78,0,0,0-4.07-1.26,11.2,11.2,0,0,0-6.83,2.66A9.79,9.79,0,0,0,8.27,39.11a10.78,10.78,0,0,0,8.64,4.07,17.75,17.75,0,0,0,11-4.32,23.52,23.52,0,0,0,4.17-4.45V11.5H29.89V11h9.74V23.78a5.73,5.73,0,0,1,1.93-1.67,8.58,8.58,0,0,1,3.93-.9A9.64,9.64,0,0,1,51.73,24a12.07,12.07,0,0,1,3.49,8.95A25.17,25.17,0,1,0,5,30.14c0,.19,0,.37,0,.56A12.39,12.39,0,0,1,9.24,24.22Z" transform="translate(-0.77 -0.74)"/><path class="cls-2" d="M51.64,42.12a9.76,9.76,0,0,1-6.34,2.55,7,7,0,0,1-4-1.09A5,5,0,0,1,39.63,42v2.64H29.89V44h2.16V35.94a22.13,22.13,0,0,1-3.55,3.67c-3.87,3.15-8.42,5-12.48,5h0A11.42,11.42,0,0,1,7.53,41a25.16,25.16,0,0,0,45.79-.91A10.4,10.4,0,0,1,51.64,42.12Z" transform="translate(-0.77 -0.74)"/><text class="cls-3" transform="translate(48.91 57.43)">TM</text></svg>