<svg id="Layer_1" data-name="Layer 1" xmlns="http://www.w3.org/2000/svg" viewBox="0 0 281.08 377.31"><defs><style>.cls-1{fill:#fff;fill-rule:evenodd;}</style></defs><title>yelp</title><path class="cls-1" d="M34,179.16,107.43,215c14.13,6.89,11.94,27.66-3.3,31.46L24.87,266.19A16.86,16.86,0,0,1,4.05,251.72a144.92,144.92,0,0,1,6.62-62.84A16.84,16.84,0,0,1,34,179.16Z" transform="translate(-3.09 -2.08)"/><path class="cls-1" d="M63.4,330.32l54.66-60.71c10.51-11.68,29.87-3.85,29.33,11.85l-2.85,81.67a16.86,16.86,0,0,1-19.64,16,146.26,146.26,0,0,1-58.53-23.69A16.84,16.84,0,0,1,63.4,330.32Z" transform="translate(-3.09 -2.08)"/><path class="cls-1" d="M193,249.54l77.69,25.24a16.84,16.84,0,0,1,10,23.26,146.27,146.27,0,0,1-38.84,49.78,16.85,16.85,0,0,1-25-4.06l-43.3-69.3C165.18,261.14,178,244.68,193,249.54Z" transform="translate(-3.09 -2.08)"/><path class="cls-1" d="M272,200,193.46,222.5c-15.11,4.33-27.39-12.57-18.6-25.6l45.69-67.72a16.83,16.83,0,0,1,25.07-3.25A145,145,0,0,1,282.77,177,16.87,16.87,0,0,1,272,200Z" transform="translate(-3.09 -2.08)"/><path class="cls-1" d="M88.5,9.43A235.12,235.12,0,0,0,48.13,24.3a16.83,16.83,0,0,0-7.29,23.6l76.75,132.94c8.61,14.91,31.41,8.8,31.41-8.42V18.92A16.82,16.82,0,0,0,130.89,2.13,235.62,235.62,0,0,0,88.5,9.43Z" transform="translate(-3.09 -2.08)"/></svg>